<?xml version="1.0" standalone="no"?>
<!DOCTYPE svg PUBLIC "-//W3C//DTD SVG 20010904//EN"
 "http://www.w3.org/TR/2001/REC-SVG-20010904/DTD/svg10.dtd">
<svg version="1.0" xmlns="http://www.w3.org/2000/svg"
 width="512.000000pt" height="512.000000pt" viewBox="0 0 512.000000 512.000000"
 preserveAspectRatio="xMidYMid meet">

<g transform="translate(0.000000,512.000000) scale(0.100000,-0.100000)"
fill="#000000" stroke="none">
<path d="M1790 4671 c-72 -23 -125 -57 -182 -118 -88 -95 -118 -191 -118 -385
l0 -117 -587 -3 -588 -3 -69 -34 c-77 -37 -148 -102 -189 -172 -60 -102 -58
-28 -55 -1625 l3 -1459 22 -53 c48 -118 145 -210 266 -252 56 -20 83 -20 2265
-20 2454 0 2253 -6 2369 69 69 45 134 123 166 203 l22 53 3 1459 c3 1597 5
1523 -55 1625 -40 69 -111 134 -188 172 l-70 34 -587 3 -588 3 0 117 c0 137
-18 233 -57 303 -38 71 -138 162 -210 191 l-58 23 -730 2 c-676 2 -734 1 -785
-16z m1495 -210 c22 -10 52 -31 67 -47 48 -52 58 -91 58 -234 l0 -130 -850 0
-850 0 0 135 c0 149 9 183 67 237 62 59 36 57 783 57 646 1 687 0 725 -18z
m1506 -649 c39 -20 62 -41 84 -77 l30 -48 0 -487 0 -487 -30 -48 c-22 -36 -45
-57 -84 -77 l-53 -28 -874 0 -874 0 0 55 c0 31 -6 71 -14 89 -28 67 -22 66
-416 66 -394 0 -388 1 -416 -66 -8 -18 -14 -58 -14 -89 l0 -55 -874 0 -874 0
-53 28 c-39 20 -62 41 -84 77 l-30 48 0 487 0 487 30 48 c22 36 45 57 84 77
l53 28 2178 0 2178 0 53 -28z m-2021 -1467 l0 -215 -210 0 -210 0 0 215 0 215
210 0 210 0 0 -215z m-2467 24 c56 -18 106 -19 943 -19 l884 0 0 -165 c0 -186
9 -224 59 -249 45 -24 697 -24 742 0 50 25 59 63 59 249 l0 165 884 0 c837 0
887 1 943 19 32 10 66 22 76 26 17 7 17 -29 15 -797 l-3 -805 -30 -48 c-22
-36 -45 -57 -84 -77 l-53 -28 -2178 0 -2178 0 -53 28 c-39 20 -62 41 -84 77
l-30 48 -3 805 c-2 768 -2 804 15 797 10 -4 44 -16 76 -26z"/>
</g>
</svg>
